# MagicaVoxel @ Ephtracy

# group
o 

# material
mtllib chr_knight.mtl
usemtl palette

# normals
vn -1 0 0
vn 1 0 0
vn 0 0 1
vn 0 0 -1
vn 0 -1 0
vn 0 1 0

# texcoords
vt 0.0332031 0.5
vt 0.0410156 0.5
vt 0.0605469 0.5
vt 0.0644531 0.5
vt 0.0683594 0.5
vt 0.205078 0.5
vt 0.369141 0.5
vt 0.486328 0.5
vt 0.603516 0.5
vt 0.607422 0.5
vt 0.623047 0.5
vt 0.767578 0.5
vt 0.994141 0.5

# verts
v -0.5 0.3 0
v -0.5 0.3 -0.1
v -0.5 0.4 0
v -0.5 0.4 -0.1
v -0.4 0.4 0
v -0.4 0.4 -0.1
v -0.4 0.5 0
v -0.4 0.5 -0.1
v -0.3 0.3 0.2
v -0.3 0.3 0.1
v -0.3 0.3 0
v -0.3 0.3 -0.1
v -0.3 0.3 -0.2
v -0.3 0.3 -0.3
v -0.3 0.4 0.2
v -0.3 0.4 0.1
v -0.3 0.4 0
v -0.3 0.4 -0.1
v -0.3 0.4 -0.2
v -0.3 0.4 -0.3
v -0.3 0.5 0.1
v -0.3 0.5 0
v -0.3 0.5 -0.1
v -0.3 0.6 0
v -0.3 0.6 -0.1
v -0.3 0.6 -0.2
v -0.3 0.7 0.2
v -0.3 0.7 0.1
v -0.3 0.7 0
v -0.3 0.7 -0.1
v -0.3 0.7 -0.2
v -0.3 0.7 -0.3
v -0.3 0.8 0.1
v -0.3 0.8 0
v -0.3 0.8 -0.2
v -0.3 0.8 -0.3
v -0.3 0.9 0.1
v -0.3 0.9 0
v -0.3 0.9 -0.2
v -0.3 0.9 -0.3
v -0.3 1 0.1
v -0.3 1 0
v -0.3 1 -0.1
v -0.3 1.1 0.1
v -0.3 1.1 0
v -0.3 1.1 -0.1
v -0.3 1.1 -0.2
v -0.3 1.2 0.2
v -0.3 1.2 0.1
v -0.3 1.2 0
v -0.3 1.2 -0.1
v -0.3 1.2 -0.2
v -0.3 1.2 -0.3
v -0.2 0 0
v -0.2 0 -0.1
v -0.2 0.2 0
v -0.2 0.2 -0.1
v -0.2 0.3 0
v -0.2 0.3 -0.1
v -0.2 0.4 0.1
v -0.2 0.4 0
v -0.2 0.4 -0.1
v -0.2 0.4 -0.2
v -0.2 0.5 0.1
v -0.2 0.5 0
v -0.2 0.5 -0.1
v -0.2 0.6 0.2
v -0.2 0.6 0.1
v -0.2 0.6 -0.1
v -0.2 0.6 -0.2
v -0.2 0.6 -0.3
v -0.2 0.7 0.2
v -0.2 0.7 0.1
v -0.2 0.7 0
v -0.2 0.7 -0.2
v -0.2 0.7 -0.3
v -0.2 0.7 -0.4
v -0.2 0.8 0.1
v -0.2 0.8 0
v -0.2 0.8 -0.2
v -0.2 0.8 -0.3
v -0.2 0.8 -0.4
v -0.2 0.9 -0.2
v -0.2 0.9 -0.3
v -0.2 0.9 -0.4
v -0.2 1 0
v -0.2 1 -0.1
v -0.2 1.1 0.1
v -0.2 1.1 0
v -0.2 1.1 -0.1
v -0.2 1.1 -0.2
v -0.2 1.1 -0.3
v -0.2 1.1 -0.4
v -0.2 1.2 0.1
v -0.2 1.2 0
v -0.2 1.2 -0.1
v -0.2 1.2 -0.2
v -0.2 1.3 0.1
v -0.2 1.3 -0.2
v -0.1 0.6 -0.3
v -0.1 0.6 -0.4
v -0.1 0.7 -0.3
v -0.1 0.7 -0.4
v -0.1 0.9 0.2
v -0.1 0.9 0.1
v -0.1 1.1 0.2
v -0.1 1.1 0.1
v 0.1 0 0
v 0.1 0 -0.1
v 0.1 0.2 0
v 0.1 0.2 -0.1
v 0.1 0.3 0
v 0.1 0.3 -0.1
v 0.1 0.5 -0.2
v 0.1 0.5 -0.3
v 0.1 0.5 -0.4
v 0.1 0.6 0.2
v 0.1 0.6 0.1
v 0.1 0.6 -0.2
v 0.1 0.6 -0.3
v 0.1 0.6 -0.4
v 0.1 0.7 0.2
v 0.1 0.7 0.1
v 0.1 0.7 -0.3
v 0.1 0.7 -0.4
v 0.1 0.8 -0.2
v 0.1 0.8 -0.3
v 0.1 0.8 -0.4
v 0.1 0.9 -0.2
v 0.1 0.9 -0.3
v 0.1 0.9 -0.4
v 0.1 1 -0.3
v 0.1 1 -0.4
v 0.2 0.4 -0.3
v 0.2 0.4 -0.4
v 0.2 0.5 -0.3
v 0.2 0.5 -0.4
v 0.2 0.6 -0.3
v 0.2 0.6 -0.4
v 0.2 0.7 0.2
v 0.2 0.7 0.1
v 0.2 0.7 -0.3
v 0.2 0.7 -0.4
v 0.2 0.8 0.1
v 0.2 0.9 0.1
v 0.2 1.1 0.2
v 0.2 1.1 0.1
v 0.3 0.3 -0.3
v 0.3 0.3 -0.4
v 0.3 0.4 -0.3
v 0.3 0.4 -0.4
v 0.3 0.5 0
v 0.3 0.5 -0.1
v 0.3 0.5 -0.3
v 0.3 0.5 -0.4
v 0.3 0.6 0
v 0.3 0.6 -0.1
v 0.3 0.6 -0.3
v 0.3 0.6 -0.4
v 0.4 0.4 0
v 0.4 0.4 -0.1
v 0.4 0.4 -0.3
v 0.4 0.4 -0.4
v 0.4 0.5 0
v 0.4 0.5 -0.1
v 0.4 0.5 -0.3
v 0.4 0.5 -0.4
v 0.4 0.6 -0.2
v 0.4 0.6 -0.3
v 0.4 0.7 -0.2
v 0.4 0.7 -0.3
v 0.5 0.3 -0.3
v 0.5 0.3 -0.4
v 0.5 0.4 -0.3
v 0.5 0.4 -0.4
v 0.6 0.4 -0.2
v 0.6 0.4 -0.3
v 0.6 0.5 -0.2
v 0.6 0.5 -0.3
v 0.6 0.6 0
v 0.6 0.6 -0.1
v 0.6 0.7 0
v 0.6 0.7 -0.1
v 0.7 0.5 -0.1
v 0.7 0.5 -0.2
v 0.7 0.6 -0.1
v 0.7 0.6 -0.2
v -0.4 0.3 0
v -0.4 0.3 -0.1
v -0.4 0.4 0
v -0.4 0.4 -0.1
v -0.3 0.4 0
v -0.3 0.4 -0.1
v -0.3 0.5 0
v -0.3 0.5 -0.1
v -0.2 0.7 0.2
v -0.2 0.7 0.1
v -0.2 0.8 0.1
v -0.2 0.9 0.1
v -0.2 1.1 0.2
v -0.2 1.1 0.1
v -0.1 0 0
v -0.1 0 -0.1
v -0.1 0.2 0
v -0.1 0.2 -0.1
v -0.1 0.3 0
v -0.1 0.3 -0.1
v -0.1 0.6 0.2
v -0.1 0.6 0.1
v -0.1 0.7 0.2
v -0.1 0.7 0.1
v -0.1 0.7 -0.3
v -0.1 0.7 -0.4
v -0.1 0.8 -0.2
v -0.1 0.8 -0.3
v -0.1 0.8 -0.4
v -0.1 0.9 -0.2
v -0.1 0.9 -0.3
v -0.1 0.9 -0.4
v -0.1 1 -0.3
v -0.1 1 -0.4
v 0 0.9 0.2
v 0 0.9 0.1
v 0 1.1 0.2
v 0 1.1 0.1
v 0.1 0.6 -0.3
v 0.1 0.6 -0.4
v 0.1 0.7 -0.3
v 0.1 0.7 -0.4
v 0.2 0 0
v 0.2 0 -0.1
v 0.2 0.2 0
v 0.2 0.2 -0.1
v 0.2 0.3 0
v 0.2 0.3 -0.1
v 0.2 0.4 0.1
v 0.2 0.4 0
v 0.2 0.4 -0.1
v 0.2 0.4 -0.2
v 0.2 0.5 0.1
v 0.2 0.5 0
v 0.2 0.5 -0.1
v 0.2 0.5 -0.2
v 0.2 0.5 -0.3
v 0.2 0.5 -0.4
v 0.2 0.6 0.2
v 0.2 0.6 0.1
v 0.2 0.6 0
v 0.2 0.6 -0.1
v 0.2 0.6 -0.2
v 0.2 0.6 -0.3
v 0.2 0.6 -0.4
v 0.2 0.7 0.2
v 0.2 0.7 0.1
v 0.2 0.7 0
v 0.2 0.7 -0.3
v 0.2 0.7 -0.4
v 0.2 0.8 0.1
v 0.2 0.8 0
v 0.2 0.8 -0.2
v 0.2 0.8 -0.3
v 0.2 0.8 -0.4
v 0.2 0.9 -0.2
v 0.2 0.9 -0.3
v 0.2 0.9 -0.4
v 0.2 1 0
v 0.2 1 -0.1
v 0.2 1.1 0.1
v 0.2 1.1 0
v 0.2 1.1 -0.1
v 0.2 1.1 -0.2
v 0.2 1.1 -0.3
v 0.2 1.1 -0.4
v 0.2 1.2 0.1
v 0.2 1.2 0
v 0.2 1.2 -0.1
v 0.2 1.2 -0.2
v 0.2 1.3 0.1
v 0.2 1.3 -0.2
v 0.3 0.3 0.2
v 0.3 0.3 0.1
v 0.3 0.3 0
v 0.3 0.3 -0.1
v 0.3 0.3 -0.2
v 0.3 0.3 -0.3
v 0.3 0.4 0.2
v 0.3 0.4 0.1
v 0.3 0.4 0
v 0.3 0.4 -0.1
v 0.3 0.4 -0.2
v 0.3 0.4 -0.3
v 0.3 0.4 -0.4
v 0.3 0.5 0.1
v 0.3 0.5 0
v 0.3 0.5 -0.3
v 0.3 0.5 -0.4
v 0.3 0.6 0
v 0.3 0.6 -0.1
v 0.3 0.6 -0.3
v 0.3 0.6 -0.4
v 0.3 0.7 0.2
v 0.3 0.7 0.1
v 0.3 0.7 0
v 0.3 0.7 -0.1
v 0.3 0.7 -0.2
v 0.3 0.7 -0.3
v 0.3 0.7 -0.4
v 0.3 0.8 0.1
v 0.3 0.8 0
v 0.3 0.8 -0.1
v 0.3 0.8 -0.2
v 0.3 0.8 -0.3
v 0.3 0.9 0.1
v 0.3 0.9 0
v 0.3 0.9 -0.2
v 0.3 0.9 -0.3
v 0.3 1 0.1
v 0.3 1 0
v 0.3 1 -0.1
v 0.3 1.1 0.1
v 0.3 1.1 0
v 0.3 1.1 -0.1
v 0.3 1.1 -0.2
v 0.3 1.2 0.2
v 0.3 1.2 0.1
v 0.3 1.2 0
v 0.3 1.2 -0.1
v 0.3 1.2 -0.2
v 0.3 1.2 -0.3
v 0.4 0.3 0
v 0.4 0.3 -0.1
v 0.4 0.3 -0.3
v 0.4 0.3 -0.4
v 0.4 0.4 0
v 0.4 0.4 -0.1
v 0.4 0.4 -0.3
v 0.4 0.4 -0.4
v 0.4 0.5 0
v 0.4 0.5 -0.1
v 0.4 0.5 -0.3
v 0.4 0.5 -0.4
v 0.4 0.6 0
v 0.4 0.6 -0.1
v 0.4 0.6 -0.3
v 0.4 0.6 -0.4
v 0.4 0.7 -0.1
v 0.4 0.7 -0.2
v 0.4 0.8 -0.1
v 0.4 0.8 -0.2
v 0.5 0.4 0
v 0.5 0.4 -0.1
v 0.5 0.4 -0.3
v 0.5 0.4 -0.4
v 0.5 0.5 0
v 0.5 0.5 -0.1
v 0.5 0.5 -0.3
v 0.5 0.5 -0.4
v 0.5 0.6 -0.2
v 0.5 0.6 -0.3
v 0.5 0.7 -0.2
v 0.5 0.7 -0.3
v 0.6 0.3 -0.3
v 0.6 0.3 -0.4
v 0.6 0.4 -0.3
v 0.6 0.4 -0.4
v 0.7 0.4 -0.2
v 0.7 0.4 -0.3
v 0.7 0.5 -0.2
v 0.7 0.5 -0.3
v 0.7 0.6 0
v 0.7 0.6 -0.1
v 0.7 0.7 0
v 0.7 0.7 -0.1
v 0.8 0.5 -0.1
v 0.8 0.5 -0.2
v 0.8 0.6 -0.1
v 0.8 0.6 -0.2
v -0.3 0.3 0.2
v -0.3 0.4 0.2
v -0.3 0.7 0.2
v -0.3 1.2 0.2
v -0.2 0.3 0.2
v -0.2 0.4 0.2
v -0.2 0.6 0.2
v -0.2 0.7 0.2
v -0.2 1.1 0.2
v -0.1 0.3 0.2
v -0.1 0.4 0.2
v -0.1 0.6 0.2
v -0.1 0.7 0.2
v -0.1 0.9 0.2
v -0.1 1.1 0.2
v 0 0.3 0.2
v 0 0.4 0.2
v 0 0.9 0.2
v 0 1.1 0.2
v 0.1 0.3 0.2
v 0.1 0.4 0.2
v 0.1 0.6 0.2
v 0.1 0.7 0.2
v 0.2 0.3 0.2
v 0.2 0.4 0.2
v 0.2 0.6 0.2
v 0.2 0.7 0.2
v 0.2 1.1 0.2
v 0.3 0.3 0.2
v 0.3 0.4 0.2
v 0.3 0.7 0.2
v 0.3 1.2 0.2
v -0.3 0.5 0.1
v -0.3 0.7 0.1
v -0.2 0.4 0.1
v -0.2 0.5 0.1
v -0.2 0.6 0.1
v -0.2 0.7 0.1
v -0.2 0.8 0.1
v -0.2 0.9 0.1
v -0.2 1.1 0.1
v -0.2 1.2 0.1
v -0.2 1.3 0.1
v -0.1 0.4 0.1
v -0.1 0.6 0.1
v -0.1 0.7 0.1
v -0.1 0.8 0.1
v -0.1 0.9 0.1
v -0.1 1.1 0.1
v 0 0.4 0.1
v 0 0.6 0.1
v 0 0.7 0.1
v 0 0.8 0.1
v 0 0.9 0.1
v 0 1.1 0.1
v 0.1 0.4 0.1
v 0.1 0.5 0.1
v 0.1 0.6 0.1
v 0.1 0.7 0.1
v 0.1 0.8 0.1
v 0.1 0.9 0.1
v 0.2 0.4 0.1
v 0.2 0.5 0.1
v 0.2 0.6 0.1
v 0.2 0.7 0.1
v 0.2 0.8 0.1
v 0.2 0.9 0.1
v 0.2 1.1 0.1
v 0.2 1.2 0.1
v 0.2 1.3 0.1
v 0.3 0.5 0.1
v 0.3 0.7 0.1
v -0.5 0.3 0
v -0.5 0.4 0
v -0.4 0.3 0
v -0.4 0.4 0
v -0.4 0.5 0
v -0.3 0.4 0
v -0.3 0.5 0
v -0.3 0.7 0
v -0.3 0.8 0
v -0.3 1.1 0
v -0.3 1.2 0
v -0.2 0 0
v -0.2 0.2 0
v -0.2 0.3 0
v -0.2 0.7 0
v -0.2 0.8 0
v -0.2 1.1 0
v -0.2 1.2 0
v -0.1 0 0
v -0.1 0.2 0
v -0.1 0.3 0
v 0.1 0 0
v 0.1 0.2 0
v 0.1 0.3 0
v 0.2 0 0
v 0.2 0.2 0
v 0.2 0.3 0
v 0.2 0.7 0
v 0.2 0.8 0
v 0.2 1.1 0
v 0.2 1.2 0
v 0.3 0.3 0
v 0.3 0.4 0
v 0.3 0.5 0
v 0.3 0.6 0
v 0.3 0.7 0
v 0.3 0.8 0
v 0.3 1.1 0
v 0.3 1.2 0
v 0.4 0.3 0
v 0.4 0.4 0
v 0.4 0.5 0
v 0.4 0.6 0
v 0.5 0.4 0
v 0.5 0.5 0
v 0.6 0.6 0
v 0.6 0.7 0
v 0.7 0.6 0
v 0.7 0.7 0
v -0.3 1 -0.1
v -0.3 1.1 -0.1
v -0.2 1 -0.1
v -0.2 1.1 -0.1
v 0.2 1 -0.1
v 0.2 1.1 -0.1
v 0.3 0.7 -0.1
v 0.3 0.8 -0.1
v 0.3 1 -0.1
v 0.3 1.1 -0.1
v 0.4 0.7 -0.1
v 0.4 0.8 -0.1
v 0.7 0.5 -0.1
v 0.7 0.6 -0.1
v 0.8 0.5 -0.1
v 0.8 0.6 -0.1
v -0.3 1.1 -0.2
v -0.3 1.2 -0.2
v -0.2 1.1 -0.2
v -0.2 1.2 -0.2
v 0.2 1.1 -0.2
v 0.2 1.2 -0.2
v 0.3 1.1 -0.2
v 0.3 1.2 -0.2
v 0.4 0.6 -0.2
v 0.4 0.7 -0.2
v 0.5 0.6 -0.2
v 0.5 0.7 -0.2
v 0.6 0.4 -0.2
v 0.6 0.5 -0.2
v 0.7 0.4 -0.2
v 0.7 0.5 -0.2
v 0.2 0.4 -0.3
v 0.2 0.5 -0.3
v 0.3 0.3 -0.3
v 0.3 0.4 -0.3
v 0.3 0.5 -0.3
v 0.3 0.6 -0.3
v 0.4 0.3 -0.3
v 0.4 0.4 -0.3
v 0.4 0.5 -0.3
v 0.4 0.6 -0.3
v 0.5 0.3 -0.3
v 0.5 0.4 -0.3
v 0.5 0.5 -0.3
v 0.6 0.3 -0.3
v 0.6 0.4 -0.3
v -0.3 0.7 0.1
v -0.3 0.8 0.1
v -0.3 1.1 0.1
v -0.3 1.2 0.1
v -0.2 0.7 0.1
v -0.2 0.8 0.1
v -0.2 1.1 0.1
v -0.2 1.2 0.1
v 0.2 0.7 0.1
v 0.2 0.8 0.1
v 0.2 1.1 0.1
v 0.2 1.2 0.1
v 0.3 0.7 0.1
v 0.3 0.8 0.1
v 0.3 1.1 0.1
v 0.3 1.2 0.1
v -0.3 1 0
v -0.3 1.1 0
v -0.2 1 0
v -0.2 1.1 0
v 0.2 0.5 0
v 0.2 0.6 0
v 0.2 1 0
v 0.2 1.1 0
v 0.3 0.5 0
v 0.3 0.6 0
v 0.3 1 0
v 0.3 1.1 0
v -0.5 0.3 -0.1
v -0.5 0.4 -0.1
v -0.4 0.3 -0.1
v -0.4 0.4 -0.1
v -0.4 0.5 -0.1
v -0.3 0.4 -0.1
v -0.3 0.5 -0.1
v -0.3 0.6 -0.1
v -0.3 1.1 -0.1
v -0.3 1.2 -0.1
v -0.2 0 -0.1
v -0.2 0.2 -0.1
v -0.2 0.3 -0.1
v -0.2 0.5 -0.1
v -0.2 0.6 -0.1
v -0.2 1.1 -0.1
v -0.2 1.2 -0.1
v -0.1 0 -0.1
v -0.1 0.2 -0.1
v -0.1 0.3 -0.1
v 0.1 0 -0.1
v 0.1 0.2 -0.1
v 0.1 0.3 -0.1
v 0.2 0 -0.1
v 0.2 0.2 -0.1
v 0.2 0.3 -0.1
v 0.2 1.1 -0.1
v 0.2 1.2 -0.1
v 0.3 0.3 -0.1
v 0.3 0.4 -0.1
v 0.3 0.5 -0.1
v 0.3 0.6 -0.1
v 0.3 1.1 -0.1
v 0.3 1.2 -0.1
v 0.4 0.3 -0.1
v 0.4 0.4 -0.1
v 0.4 0.5 -0.1
v 0.4 0.6 -0.1
v 0.5 0.4 -0.1
v 0.5 0.5 -0.1
v 0.6 0.6 -0.1
v 0.6 0.7 -0.1
v 0.7 0.6 -0.1
v 0.7 0.7 -0.1
v -0.3 0.6 -0.2
v -0.3 0.7 -0.2
v -0.3 0.8 -0.2
v -0.3 0.9 -0.2
v -0.2 0.4 -0.2
v -0.2 0.6 -0.2
v -0.2 0.7 -0.2
v -0.2 0.8 -0.2
v -0.2 0.9 -0.2
v -0.2 1.2 -0.2
v -0.2 1.3 -0.2
v -0.1 0.4 -0.2
v -0.1 0.6 -0.2
v -0.1 0.8 -0.2
v -0.1 0.9 -0.2
v 0 0.4 -0.2
v 0 0.6 -0.2
v 0.1 0.4 -0.2
v 0.1 0.5 -0.2
v 0.1 0.6 -0.2
v 0.1 0.8 -0.2
v 0.1 0.9 -0.2
v 0.2 0.4 -0.2
v 0.2 0.5 -0.2
v 0.2 0.8 -0.2
v 0.2 0.9 -0.2
v 0.2 1.2 -0.2
v 0.2 1.3 -0.2
v 0.3 0.7 -0.2
v 0.3 0.8 -0.2
v 0.3 0.9 -0.2
v 0.4 0.7 -0.2
v 0.4 0.8 -0.2
v 0.7 0.5 -0.2
v 0.7 0.6 -0.2
v 0.8 0.5 -0.2
v 0.8 0.6 -0.2
v -0.3 0.3 -0.3
v -0.3 0.4 -0.3
v -0.3 0.7 -0.3
v -0.3 0.8 -0.3
v -0.3 0.9 -0.3
v -0.3 1.2 -0.3
v -0.2 0.3 -0.3
v -0.2 0.4 -0.3
v -0.2 0.6 -0.3
v -0.2 0.7 -0.3
v -0.2 0.8 -0.3
v -0.2 0.9 -0.3
v -0.2 1.1 -0.3
v -0.1 0.3 -0.3
v -0.1 0.4 -0.3
v -0.1 0.6 -0.3
v -0.1 0.7 -0.3
v -0.1 0.8 -0.3
v -0.1 0.9 -0.3
v -0.1 1 -0.3
v 0 0.3 -0.3
v 0 0.4 -0.3
v 0.1 0.3 -0.3
v 0.1 0.4 -0.3
v 0.1 0.6 -0.3
v 0.1 0.7 -0.3
v 0.1 0.8 -0.3
v 0.1 0.9 -0.3
v 0.1 1 -0.3
v 0.2 0.3 -0.3
v 0.2 0.4 -0.3
v 0.2 0.6 -0.3
v 0.2 0.7 -0.3
v 0.2 0.8 -0.3
v 0.2 0.9 -0.3
v 0.2 1.1 -0.3
v 0.3 0.3 -0.3
v 0.3 0.4 -0.3
v 0.3 0.7 -0.3
v 0.3 0.8 -0.3
v 0.3 0.9 -0.3
v 0.3 1.2 -0.3
v 0.4 0.6 -0.3
v 0.4 0.7 -0.3
v 0.5 0.6 -0.3
v 0.5 0.7 -0.3
v 0.6 0.4 -0.3
v 0.6 0.5 -0.3
v 0.7 0.4 -0.3
v 0.7 0.5 -0.3
v -0.2 0.7 -0.4
v -0.2 0.8 -0.4
v -0.2 0.9 -0.4
v -0.2 1.1 -0.4
v -0.1 0.6 -0.4
v -0.1 0.7 -0.4
v -0.1 0.8 -0.4
v -0.1 0.9 -0.4
v -0.1 1 -0.4
v 0.1 0.5 -0.4
v 0.1 0.6 -0.4
v 0.1 0.7 -0.4
v 0.1 0.8 -0.4
v 0.1 0.9 -0.4
v 0.1 1 -0.4
v 0.2 0.4 -0.4
v 0.2 0.5 -0.4
v 0.2 0.6 -0.4
v 0.2 0.7 -0.4
v 0.2 0.8 -0.4
v 0.2 0.9 -0.4
v 0.2 1.1 -0.4
v 0.3 0.3 -0.4
v 0.3 0.4 -0.4
v 0.3 0.5 -0.4
v 0.3 0.6 -0.4
v 0.3 0.7 -0.4
v 0.4 0.3 -0.4
v 0.4 0.4 -0.4
v 0.4 0.5 -0.4
v 0.4 0.6 -0.4
v 0.5 0.3 -0.4
v 0.5 0.4 -0.4
v 0.5 0.5 -0.4
v 0.6 0.3 -0.4
v 0.6 0.4 -0.4
v -0.2 0 0
v -0.1 0 0
v 0.1 0 0
v 0.2 0 0
v -0.2 0 -0.1
v -0.1 0 -0.1
v 0.1 0 -0.1
v 0.2 0 -0.1
v -0.3 0.3 0.2
v -0.2 0.3 0.2
v -0.1 0.3 0.2
v 0 0.3 0.2
v 0.1 0.3 0.2
v 0.2 0.3 0.2
v 0.3 0.3 0.2
v -0.3 0.3 0.1
v -0.2 0.3 0.1
v 0.2 0.3 0.1
v 0.3 0.3 0.1
v -0.5 0.3 0
v -0.4 0.3 0
v -0.3 0.3 0
v -0.2 0.3 0
v -0.1 0.3 0
v 0.1 0.3 0
v 0.2 0.3 0
v 0.3 0.3 0
v 0.4 0.3 0
v -0.5 0.3 -0.1
v -0.4 0.3 -0.1
v -0.3 0.3 -0.1
v -0.2 0.3 -0.1
v -0.1 0.3 -0.1
v 0.1 0.3 -0.1
v 0.2 0.3 -0.1
v 0.3 0.3 -0.1
v 0.4 0.3 -0.1
v -0.3 0.3 -0.2
v -0.2 0.3 -0.2
v 0.2 0.3 -0.2
v 0.3 0.3 -0.2
v -0.3 0.3 -0.3
v -0.2 0.3 -0.3
v -0.1 0.3 -0.3
v 0 0.3 -0.3
v 0.1 0.3 -0.3
v 0.2 0.3 -0.3
v 0.3 0.3 -0.3
v 0.4 0.3 -0.3
v 0.5 0.3 -0.3
v 0.6 0.3 -0.3
v 0.3 0.3 -0.4
v 0.4 0.3 -0.4
v 0.5 0.3 -0.4
v 0.6 0.3 -0.4
v -0.4 0.4 0
v -0.3 0.4 0
v 0.4 0.4 0
v 0.5 0.4 0
v -0.4 0.4 -0.1
v -0.3 0.4 -0.1
v 0.4 0.4 -0.1
v 0.5 0.4 -0.1
v 0.6 0.4 -0.2
v 0.7 0.4 -0.2
v 0.2 0.4 -0.3
v 0.3 0.4 -0.3
v 0.4 0.4 -0.3
v 0.5 0.4 -0.3
v 0.6 0.4 -0.3
v 0.7 0.4 -0.3
v 0.2 0.4 -0.4
v 0.3 0.4 -0.4
v 0.4 0.4 -0.4
v 0.5 0.4 -0.4
v -0.3 0.5 0.1
v -0.2 0.5 0.1
v 0.2 0.5 0.1
v 0.3 0.5 0.1
v -0.3 0.5 0
v -0.2 0.5 0
v 0.2 0.5 0
v 0.3 0.5 0
v 0.4 0.5 0
v -0.3 0.5 -0.1
v -0.2 0.5 -0.1
v 0.3 0.5 -0.1
v 0.4 0.5 -0.1
v 0.7 0.5 -0.1
v 0.8 0.5 -0.1
v 0.1 0.5 -0.2
v 0.2 0.5 -0.2
v 0.7 0.5 -0.2
v 0.8 0.5 -0.2
v 0.1 0.5 -0.3
v 0.2 0.5 -0.3
v 0.3 0.5 -0.3
v 0.4 0.5 -0.3
v 0.1 0.5 -0.4
v 0.2 0.5 -0.4
v 0.3 0.5 -0.4
v 0.4 0.5 -0.4
v -0.2 0.6 0.2
v -0.1 0.6 0.2
v 0.1 0.6 0.2
v 0.2 0.6 0.2
v -0.2 0.6 0.1
v -0.1 0.6 0.1
v 0.1 0.6 0.1
v 0.2 0.6 0.1
v 0.2 0.6 0
v 0.3 0.6 0
v 0.6 0.6 0
v 0.7 0.6 0
v -0.3 0.6 -0.1
v -0.2 0.6 -0.1
v 0.2 0.6 -0.1
v 0.3 0.6 -0.1
v 0.6 0.6 -0.1
v 0.7 0.6 -0.1
v -0.3 0.6 -0.2
v -0.2 0.6 -0.2
v -0.1 0.6 -0.2
v 0 0.6 -0.2
v 0.1 0.6 -0.2
v 0.2 0.6 -0.2
v 0.4 0.6 -0.2
v 0.5 0.6 -0.2
v -0.2 0.6 -0.3
v -0.1 0.6 -0.3
v 0.1 0.6 -0.3
v 0.2 0.6 -0.3
v 0.3 0.6 -0.3
v 0.4 0.6 -0.3
v 0.5 0.6 -0.3
v -0.1 0.6 -0.4
v 0.1 0.6 -0.4
v 0.2 0.6 -0.4
v 0.3 0.6 -0.4
v -0.3 0.7 0.2
v -0.2 0.7 0.2
v 0.2 0.7 0.2
v 0.3 0.7 0.2
v -0.3 0.7 0.1
v -0.2 0.7 0.1
v 0.2 0.7 0.1
v 0.3 0.7 0.1
v 0.3 0.7 -0.1
v 0.4 0.7 -0.1
v -0.3 0.7 -0.2
v -0.2 0.7 -0.2
v 0.3 0.7 -0.2
v 0.4 0.7 -0.2
v -0.3 0.7 -0.3
v -0.2 0.7 -0.3
v -0.1 0.7 -0.3
v 0.1 0.7 -0.3
v 0.2 0.7 -0.3
v -0.2 0.7 -0.4
v -0.1 0.7 -0.4
v 0.1 0.7 -0.4
v 0.2 0.7 -0.4
v -0.3 0.8 0.1
v -0.2 0.8 0.1
v 0.2 0.8 0.1
v 0.3 0.8 0.1
v -0.3 0.8 0
v -0.2 0.8 0
v 0.2 0.8 0
v 0.3 0.8 0
v -0.1 0.9 0.2
v 0 0.9 0.2
v -0.1 0.9 0.1
v 0 0.9 0.1
v -0.3 0.9 -0.2
v -0.2 0.9 -0.2
v -0.1 0.9 -0.2
v 0.1 0.9 -0.2
v 0.2 0.9 -0.2
v 0.3 0.9 -0.2
v -0.3 0.9 -0.3
v -0.2 0.9 -0.3
v -0.1 0.9 -0.3
v 0.1 0.9 -0.3
v 0.2 0.9 -0.3
v 0.3 0.9 -0.3
v -0.2 0.9 -0.4
v -0.1 0.9 -0.4
v 0.1 0.9 -0.4
v 0.2 0.9 -0.4
v -0.1 1 -0.3
v 0.1 1 -0.3
v -0.1 1 -0.4
v 0.1 1 -0.4
v -0.2 1.1 0.2
v -0.1 1.1 0.2
v 0 1.1 0.2
v 0.2 1.1 0.2
v -0.2 1.1 0.1
v -0.1 1.1 0.1
v 0 1.1 0.1
v 0.2 1.1 0.1
v -0.3 1.1 0
v -0.2 1.1 0
v 0.2 1.1 0
v 0.3 1.1 0
v -0.3 1.1 -0.1
v -0.2 1.1 -0.1
v 0.2 1.1 -0.1
v 0.3 1.1 -0.1
v -0.3 0.4 0.2
v -0.2 0.4 0.2
v -0.1 0.4 0.2
v 0 0.4 0.2
v 0.1 0.4 0.2
v 0.2 0.4 0.2
v 0.3 0.4 0.2
v -0.3 0.4 0.1
v -0.2 0.4 0.1
v -0.1 0.4 0.1
v 0 0.4 0.1
v 0.1 0.4 0.1
v 0.2 0.4 0.1
v 0.3 0.4 0.1
v -0.5 0.4 0
v -0.4 0.4 0
v -0.3 0.4 0
v -0.2 0.4 0
v 0.2 0.4 0
v 0.3 0.4 0
v 0.4 0.4 0
v -0.5 0.4 -0.1
v -0.4 0.4 -0.1
v -0.3 0.4 -0.1
v -0.2 0.4 -0.1
v 0.2 0.4 -0.1
v 0.3 0.4 -0.1
v 0.4 0.4 -0.1
v -0.3 0.4 -0.2
v -0.2 0.4 -0.2
v -0.1 0.4 -0.2
v 0 0.4 -0.2
v 0.1 0.4 -0.2
v 0.2 0.4 -0.2
v 0.3 0.4 -0.2
v -0.3 0.4 -0.3
v -0.2 0.4 -0.3
v -0.1 0.4 -0.3
v 0 0.4 -0.3
v 0.1 0.4 -0.3
v 0.2 0.4 -0.3
v 0.3 0.4 -0.3
v 0.4 0.4 -0.3
v 0.5 0.4 -0.3
v 0.6 0.4 -0.3
v 0.3 0.4 -0.4
v 0.4 0.4 -0.4
v 0.5 0.4 -0.4
v 0.6 0.4 -0.4
v -0.4 0.5 0
v -0.3 0.5 0
v 0.4 0.5 0
v 0.5 0.5 0
v -0.4 0.5 -0.1
v -0.3 0.5 -0.1
v 0.4 0.5 -0.1
v 0.5 0.5 -0.1
v 0.6 0.5 -0.2
v 0.7 0.5 -0.2
v 0.2 0.5 -0.3
v 0.3 0.5 -0.3
v 0.4 0.5 -0.3
v 0.5 0.5 -0.3
v 0.6 0.5 -0.3
v 0.7 0.5 -0.3
v 0.2 0.5 -0.4
v 0.3 0.5 -0.4
v 0.4 0.5 -0.4
v 0.5 0.5 -0.4
v 0.3 0.6 0
v 0.4 0.6 0
v 0.3 0.6 -0.1
v 0.4 0.6 -0.1
v 0.7 0.6 -0.1
v 0.8 0.6 -0.1
v 0.7 0.6 -0.2
v 0.8 0.6 -0.2
v 0.1 0.6 -0.3
v 0.2 0.6 -0.3
v 0.3 0.6 -0.3
v 0.4 0.6 -0.3
v 0.1 0.6 -0.4
v 0.2 0.6 -0.4
v 0.3 0.6 -0.4
v 0.4 0.6 -0.4
v -0.2 0.7 0.2
v -0.1 0.7 0.2
v 0.1 0.7 0.2
v 0.2 0.7 0.2
v -0.3 0.7 0.1
v -0.2 0.7 0.1
v -0.1 0.7 0.1
v 0.1 0.7 0.1
v 0.2 0.7 0.1
v 0.3 0.7 0.1
v -0.3 0.7 0
v -0.2 0.7 0
v 0.2 0.7 0
v 0.3 0.7 0
v 0.6 0.7 0
v 0.7 0.7 0
v 0.6 0.7 -0.1
v 0.7 0.7 -0.1
v 0.4 0.7 -0.2
v 0.5 0.7 -0.2
v -0.1 0.7 -0.3
v 0.1 0.7 -0.3
v 0.2 0.7 -0.3
v 0.3 0.7 -0.3
v 0.4 0.7 -0.3
v 0.5 0.7 -0.3
v -0.1 0.7 -0.4
v 0.1 0.7 -0.4
v 0.2 0.7 -0.4
v 0.3 0.7 -0.4
v 0.3 0.8 -0.1
v 0.4 0.8 -0.1
v -0.3 0.8 -0.2
v -0.2 0.8 -0.2
v -0.1 0.8 -0.2
v 0.1 0.8 -0.2
v 0.2 0.8 -0.2
v 0.3 0.8 -0.2
v 0.4 0.8 -0.2
v -0.3 0.8 -0.3
v -0.2 0.8 -0.3
v -0.1 0.8 -0.3
v 0.1 0.8 -0.3
v 0.2 0.8 -0.3
v 0.3 0.8 -0.3
v -0.2 0.8 -0.4
v -0.1 0.8 -0.4
v 0.1 0.8 -0.4
v 0.2 0.8 -0.4
v -0.3 1 0
v -0.2 1 0
v 0.2 1 0
v 0.3 1 0
v -0.3 1 -0.1
v -0.2 1 -0.1
v 0.2 1 -0.1
v 0.3 1 -0.1
v -0.3 1.1 0.1
v -0.2 1.1 0.1
v 0.2 1.1 0.1
v 0.3 1.1 0.1
v -0.3 1.1 0
v -0.2 1.1 0
v 0.2 1.1 0
v 0.3 1.1 0
v -0.3 1.1 -0.1
v -0.2 1.1 -0.1
v 0.2 1.1 -0.1
v 0.3 1.1 -0.1
v -0.3 1.1 -0.2
v -0.2 1.1 -0.2
v 0.2 1.1 -0.2
v 0.3 1.1 -0.2
v -0.2 1.1 -0.3
v 0.2 1.1 -0.3
v -0.2 1.1 -0.4
v 0.2 1.1 -0.4
v -0.3 1.2 0.2
v 0.3 1.2 0.2
v -0.3 1.2 0.1
v -0.2 1.2 0.1
v 0.2 1.2 0.1
v 0.3 1.2 0.1
v -0.3 1.2 0
v -0.2 1.2 0
v 0.2 1.2 0
v 0.3 1.2 0
v -0.3 1.2 -0.1
v -0.2 1.2 -0.1
v 0.2 1.2 -0.1
v 0.3 1.2 -0.1
v -0.3 1.2 -0.2
v -0.2 1.2 -0.2
v 0.2 1.2 -0.2
v 0.3 1.2 -0.2
v -0.3 1.2 -0.3
v 0.3 1.2 -0.3
v -0.2 1.3 0.1
v 0.2 1.3 0.1
v -0.2 1.3 -0.2
v 0.2 1.3 -0.2

# faces
f 3/1/1 2/1/1 1/1/1
f 4/1/1 2/1/1 3/1/1
f 7/11/1 6/11/1 5/11/1
f 8/11/1 6/11/1 7/11/1
f 15/12/1 10/12/1 9/12/1
f 16/9/1 11/9/1 10/9/1
f 16/12/1 10/12/1 15/12/1
f 17/12/1 12/12/1 11/12/1
f 17/9/1 11/9/1 16/9/1
f 18/9/1 13/9/1 12/9/1
f 18/12/1 12/12/1 17/12/1
f 19/12/1 14/12/1 13/12/1
f 19/9/1 13/9/1 18/9/1
f 20/12/1 14/12/1 19/12/1
f 24/5/1 22/5/1 21/5/1
f 24/1/1 23/1/1 22/1/1
f 25/1/1 23/1/1 24/1/1
f 28/5/1 24/5/1 21/5/1
f 29/12/1 25/12/1 24/12/1
f 29/5/1 24/5/1 28/5/1
f 30/5/1 26/5/1 25/5/1
f 30/12/1 25/12/1 29/12/1
f 31/5/1 26/5/1 30/5/1
f 33/5/1 28/5/1 27/5/1
f 34/5/1 32/5/1 31/5/1
f 34/5/1 31/5/1 30/5/1
f 34/5/1 30/5/1 29/5/1
f 35/5/1 32/5/1 34/5/1
f 36/5/1 32/5/1 35/5/1
f 37/5/1 33/5/1 27/5/1
f 37/2/1 34/2/1 33/2/1
f 38/5/1 35/5/1 34/5/1
f 38/2/1 34/2/1 37/2/1
f 39/5/1 35/5/1 38/5/1
f 41/5/1 37/5/1 27/5/1
f 41/6/1 38/6/1 37/6/1
f 42/5/1 40/5/1 39/5/1
f 42/6/1 38/6/1 41/6/1
f 42/5/1 39/5/1 38/5/1
f 43/5/1 40/5/1 42/5/1
f 44/5/1 41/5/1 27/5/1
f 44/5/1 42/5/1 41/5/1
f 45/5/1 42/5/1 44/5/1
f 46/5/1 40/5/1 43/5/1
f 47/5/1 40/5/1 46/5/1
f 48/5/1 44/5/1 27/5/1
f 49/5/1 44/5/1 48/5/1
f 50/5/1 46/5/1 45/5/1
f 51/5/1 46/5/1 50/5/1
f 52/5/1 40/5/1 47/5/1
f 53/5/1 40/5/1 52/5/1
f 56/7/1 55/7/1 54/7/1
f 57/7/1 55/7/1 56/7/1
f 58/1/1 57/1/1 56/1/1
f 59/1/1 57/1/1 58/1/1
f 64/9/1 61/9/1 60/9/1
f 65/12/1 62/12/1 61/12/1
f 65/9/1 61/9/1 64/9/1
f 66/9/1 63/9/1 62/9/1
f 66/12/1 62/12/1 65/12/1
f 69/9/1 63/9/1 66/9/1
f 70/9/1 63/9/1 69/9/1
f 72/5/1 68/5/1 67/5/1
f 73/5/1 68/5/1 72/5/1
f 75/5/1 71/5/1 70/5/1
f 76/5/1 71/5/1 75/5/1
f 78/3/1 74/3/1 73/3/1
f 79/3/1 74/3/1 78/3/1
f 81/5/1 77/5/1 76/5/1
f 82/5/1 77/5/1 81/5/1
f 83/5/1 81/5/1 80/5/1
f 84/5/1 81/5/1 83/5/1
f 89/5/1 87/5/1 86/5/1
f 90/5/1 87/5/1 89/5/1
f 92/5/1 85/5/1 84/5/1
f 93/5/1 85/5/1 92/5/1
f 94/5/1 89/5/1 88/5/1
f 95/5/1 89/5/1 94/5/1
f 96/5/1 91/5/1 90/5/1
f 97/5/1 91/5/1 96/5/1
f 98/5/1 95/5/1 94/5/1
f 98/5/1 96/5/1 95/5/1
f 98/5/1 97/5/1 96/5/1
f 99/5/1 97/5/1 98/5/1
f 102/5/1 101/5/1 100/5/1
f 103/5/1 101/5/1 102/5/1
f 106/5/1 105/5/1 104/5/1
f 107/5/1 105/5/1 106/5/1
f 110/7/1 109/7/1 108/7/1
f 111/7/1 109/7/1 110/7/1
f 112/1/1 111/1/1 110/1/1
f 113/1/1 111/1/1 112/1/1
f 119/8/1 115/8/1 114/8/1
f 120/5/1 116/5/1 115/5/1
f 120/8/1 115/8/1 119/8/1
f 121/5/1 116/5/1 120/5/1
f 122/5/1 118/5/1 117/5/1
f 123/5/1 118/5/1 122/5/1
f 127/5/1 125/5/1 124/5/1
f 128/5/1 125/5/1 127/5/1
f 129/5/1 127/5/1 126/5/1
f 130/5/1 127/5/1 129/5/1
f 132/5/1 131/5/1 130/5/1
f 133/5/1 131/5/1 132/5/1
f 136/5/1 135/5/1 134/5/1
f 137/5/1 135/5/1 136/5/1
f 142/5/1 139/5/1 138/5/1
f 143/5/1 139/5/1 142/5/1
f 144/5/1 141/5/1 140/5/1
f 145/5/1 144/5/1 140/5/1
f 146/5/1 145/5/1 140/5/1
f 147/5/1 145/5/1 146/5/1
f 150/5/1 149/5/1 148/5/1
f 151/5/1 149/5/1 150/5/1
f 156/1/1 153/1/1 152/1/1
f 157/1/1 153/1/1 156/1/1
f 158/5/1 155/5/1 154/5/1
f 159/5/1 155/5/1 158/5/1
f 164/1/1 161/1/1 160/1/1
f 165/1/1 161/1/1 164/1/1
f 166/5/1 163/5/1 162/5/1
f 167/5/1 163/5/1 166/5/1
f 170/5/1 169/5/1 168/5/1
f 171/5/1 169/5/1 170/5/1
f 174/5/1 173/5/1 172/5/1
f 175/5/1 173/5/1 174/5/1
f 178/5/1 177/5/1 176/5/1
f 179/5/1 177/5/1 178/5/1
f 182/5/1 181/5/1 180/5/1
f 183/5/1 181/5/1 182/5/1
f 186/5/1 185/5/1 184/5/1
f 187/5/1 185/5/1 186/5/1
f 188/1/2 189/1/2 190/1/2
f 190/1/2 189/1/2 191/1/2
f 192/11/2 193/11/2 194/11/2
f 194/11/2 193/11/2 195/11/2
f 196/5/2 197/5/2 198/5/2
f 196/5/2 198/5/2 199/5/2
f 196/5/2 199/5/2 200/5/2
f 200/5/2 199/5/2 201/5/2
f 202/7/2 203/7/2 204/7/2
f 204/7/2 203/7/2 205/7/2
f 204/1/2 205/1/2 206/1/2
f 206/1/2 205/1/2 207/1/2
f 208/5/2 209/5/2 210/5/2
f 210/5/2 209/5/2 211/5/2
f 212/5/2 213/5/2 215/5/2
f 215/5/2 213/5/2 216/5/2
f 214/5/2 215/5/2 217/5/2
f 217/5/2 215/5/2 218/5/2
f 218/5/2 219/5/2 220/5/2
f 220/5/2 219/5/2 221/5/2
f 222/5/2 223/5/2 224/5/2
f 224/5/2 223/5/2 225/5/2
f 226/5/2 227/5/2 228/5/2
f 228/5/2 227/5/2 229/5/2
f 230/7/2 231/7/2 232/7/2
f 232/7/2 231/7/2 233/7/2
f 232/1/2 233/1/2 234/1/2
f 234/1/2 233/1/2 235/1/2
f 236/12/2 237/12/2 240/12/2
f 237/9/2 238/9/2 241/9/2
f 240/12/2 237/12/2 241/12/2
f 238/12/2 239/12/2 242/12/2
f 241/9/2 238/9/2 242/9/2
f 242/12/2 239/12/2 243/12/2
f 241/11/2 242/11/2 248/11/2
f 242/11/2 243/11/2 248/11/2
f 248/11/2 243/11/2 249/11/2
f 243/8/2 244/8/2 250/8/2
f 249/11/2 243/11/2 250/11/2
f 244/5/2 245/5/2 251/5/2
f 250/8/2 244/8/2 251/8/2
f 251/5/2 245/5/2 252/5/2
f 246/5/2 247/5/2 253/5/2
f 253/5/2 247/5/2 254/5/2
f 254/1/2 255/1/2 258/1/2
f 258/1/2 255/1/2 259/1/2
f 256/5/2 257/5/2 261/5/2
f 261/5/2 257/5/2 262/5/2
f 260/5/2 261/5/2 263/5/2
f 263/5/2 261/5/2 264/5/2
f 266/5/2 267/5/2 269/5/2
f 269/5/2 267/5/2 270/5/2
f 264/5/2 265/5/2 272/5/2
f 272/5/2 265/5/2 273/5/2
f 268/5/2 269/5/2 274/5/2
f 274/5/2 269/5/2 275/5/2
f 270/5/2 271/5/2 276/5/2
f 276/5/2 271/5/2 277/5/2
f 274/5/2 275/5/2 278/5/2
f 275/5/2 276/5/2 278/5/2
f 276/5/2 277/5/2 278/5/2
f 278/5/2 277/5/2 279/5/2
f 280/9/2 281/9/2 286/9/2
f 281/12/2 282/12/2 287/12/2
f 286/9/2 281/9/2 287/9/2
f 287/12/2 282/12/2 288/12/2
f 283/12/2 284/12/2 289/12/2
f 284/9/2 285/9/2 290/9/2
f 289/12/2 284/12/2 290/12/2
f 290/9/2 285/9/2 291/9/2
f 291/5/2 292/5/2 295/5/2
f 295/5/2 292/5/2 296/5/2
f 293/5/2 294/5/2 297/5/2
f 293/5/2 297/5/2 302/5/2
f 297/12/2 298/12/2 303/12/2
f 302/5/2 297/5/2 303/5/2
f 299/5/2 300/5/2 304/5/2
f 303/12/2 298/12/2 304/12/2
f 298/5/2 299/5/2 304/5/2
f 304/5/2 300/5/2 305/5/2
f 305/5/2 300/5/2 306/5/2
f 306/5/2 300/5/2 307/5/2
f 301/5/2 302/5/2 308/5/2
f 303/4/2 304/4/2 309/4/2
f 309/4/2 304/4/2 310/4/2
f 305/5/2 306/5/2 311/5/2
f 311/5/2 306/5/2 312/5/2
f 309/5/2 310/5/2 313/5/2
f 301/5/2 308/5/2 313/5/2
f 310/5/2 311/5/2 313/5/2
f 308/5/2 309/5/2 313/5/2
f 313/5/2 311/5/2 314/5/2
f 314/5/2 311/5/2 315/5/2
f 301/5/2 313/5/2 317/5/2
f 313/6/2 314/6/2 317/6/2
f 315/5/2 316/5/2 318/5/2
f 317/6/2 314/6/2 318/6/2
f 314/5/2 315/5/2 318/5/2
f 318/5/2 316/5/2 319/5/2
f 301/5/2 317/5/2 320/5/2
f 317/5/2 318/5/2 320/5/2
f 320/5/2 318/5/2 321/5/2
f 319/5/2 316/5/2 322/5/2
f 322/5/2 316/5/2 323/5/2
f 301/5/2 320/5/2 324/5/2
f 324/5/2 320/5/2 325/5/2
f 321/5/2 322/5/2 326/5/2
f 326/5/2 322/5/2 327/5/2
f 323/5/2 316/5/2 328/5/2
f 328/5/2 316/5/2 329/5/2
f 330/1/2 331/1/2 334/1/2
f 334/1/2 331/1/2 335/1/2
f 332/5/2 333/5/2 336/5/2
f 336/5/2 333/5/2 337/5/2
f 338/1/2 339/1/2 342/1/2
f 342/1/2 339/1/2 343/1/2
f 340/5/2 341/5/2 344/5/2
f 344/5/2 341/5/2 345/5/2
f 346/5/2 347/5/2 348/5/2
f 348/5/2 347/5/2 349/5/2
f 350/1/2 351/1/2 354/1/2
f 354/1/2 351/1/2 355/1/2
f 352/5/2 353/5/2 356/5/2
f 356/5/2 353/5/2 357/5/2
f 358/5/2 359/5/2 360/5/2
f 360/5/2 359/5/2 361/5/2
f 362/5/2 363/5/2 364/5/2
f 364/5/2 363/5/2 365/5/2
f 366/5/2 367/5/2 368/5/2
f 368/5/2 367/5/2 369/5/2
f 370/5/2 371/5/2 372/5/2
f 372/5/2 371/5/2 373/5/2
f 374/5/2 375/5/2 376/5/2
f 376/5/2 375/5/2 377/5/2
f 382/12/3 379/12/3 378/12/3
f 383/12/3 379/12/3 382/12/3
f 385/5/3 381/5/3 380/5/3
f 386/5/3 381/5/3 385/5/3
f 387/9/3 383/9/3 382/9/3
f 388/9/3 383/9/3 387/9/3
f 389/5/3 385/5/3 384/5/3
f 390/5/3 385/5/3 389/5/3
f 392/5/3 381/5/3 386/5/3
f 393/12/3 388/12/3 387/12/3
f 394/12/3 388/12/3 393/12/3
f 395/5/3 392/5/3 391/5/3
f 396/5/3 381/5/3 392/5/3
f 396/5/3 392/5/3 395/5/3
f 397/9/3 394/9/3 393/9/3
f 398/9/3 394/9/3 397/9/3
f 401/12/3 398/12/3 397/12/3
f 402/12/3 398/12/3 401/12/3
f 403/5/3 400/5/3 399/5/3
f 404/5/3 400/5/3 403/5/3
f 405/5/3 381/5/3 396/5/3
f 406/9/3 402/9/3 401/9/3
f 407/9/3 402/9/3 406/9/3
f 408/5/3 405/5/3 404/5/3
f 409/5/3 381/5/3 405/5/3
f 409/5/3 405/5/3 408/5/3
f 413/5/3 411/5/3 410/5/3
f 414/5/3 411/5/3 413/5/3
f 415/5/3 411/5/3 414/5/3
f 421/9/3 413/9/3 412/9/3
f 421/9/3 414/9/3 413/9/3
f 422/9/3 414/9/3 421/9/3
f 423/3/3 416/3/3 415/3/3
f 424/13/3 417/13/3 416/13/3
f 424/3/3 416/3/3 423/3/3
f 425/5/3 418/5/3 417/5/3
f 425/13/3 417/13/3 424/13/3
f 426/5/3 418/5/3 425/5/3
f 427/12/3 422/12/3 421/12/3
f 428/10/3 423/10/3 422/10/3
f 428/12/3 422/12/3 427/12/3
f 429/3/3 424/3/3 423/3/3
f 429/10/3 423/10/3 428/10/3
f 430/1/3 425/1/3 424/1/3
f 430/3/3 424/3/3 429/3/3
f 431/1/3 425/1/3 430/1/3
f 433/9/3 428/9/3 427/9/3
f 433/9/3 429/9/3 428/9/3
f 434/9/3 429/9/3 433/9/3
f 435/9/3 429/9/3 434/9/3
f 436/1/3 431/1/3 430/1/3
f 436/9/3 429/9/3 435/9/3
f 436/1/3 430/1/3 429/1/3
f 437/1/3 431/1/3 436/1/3
f 438/5/3 432/5/3 431/5/3
f 438/1/3 431/1/3 437/1/3
f 439/12/3 434/12/3 433/12/3
f 440/9/3 435/9/3 434/9/3
f 440/12/3 434/12/3 439/12/3
f 441/9/3 435/9/3 440/9/3
f 442/1/3 437/1/3 436/1/3
f 443/13/3 438/13/3 437/13/3
f 443/1/3 437/1/3 442/1/3
f 444/5/3 432/5/3 438/5/3
f 444/13/3 438/13/3 443/13/3
f 445/5/3 432/5/3 444/5/3
f 446/5/3 420/5/3 419/5/3
f 447/5/3 420/5/3 446/5/3
f 448/5/3 441/5/3 440/5/3
f 448/5/3 442/5/3 441/5/3
f 449/5/3 442/5/3 448/5/3
f 452/1/3 451/1/3 450/1/3
f 453/1/3 451/1/3 452/1/3
f 455/11/3 454/11/3 453/11/3
f 456/11/3 454/11/3 455/11/3
f 464/5/3 458/5/3 457/5/3
f 465/5/3 458/5/3 464/5/3
f 466/5/3 460/5/3 459/5/3
f 467/5/3 460/5/3 466/5/3
f 468/7/3 462/7/3 461/7/3
f 469/1/3 463/1/3 462/1/3
f 469/7/3 462/7/3 468/7/3
f 470/1/3 463/1/3 469/1/3
f 474/7/3 472/7/3 471/7/3
f 475/1/3 473/1/3 472/1/3
f 475/7/3 472/7/3 474/7/3
f 476/1/3 473/1/3 475/1/3
f 485/4/3 478/4/3 477/4/3
f 486/4/3 478/4/3 485/4/3
f 487/5/3 480/5/3 479/5/3
f 488/5/3 480/5/3 487/5/3
f 489/1/3 482/1/3 481/1/3
f 490/1/3 482/1/3 489/1/3
f 491/1/3 484/1/3 483/1/3
f 492/1/3 484/1/3 491/1/3
f 493/1/3 491/1/3 490/1/3
f 494/1/3 491/1/3 493/1/3
f 497/5/3 496/5/3 495/5/3
f 498/5/3 496/5/3 497/5/3
f 501/5/3 500/5/3 499/5/3
f 502/5/3 500/5/3 501/5/3
f 507/5/3 504/5/3 503/5/3
f 508/5/3 504/5/3 507/5/3
f 509/5/3 506/5/3 505/5/3
f 510/5/3 506/5/3 509/5/3
f 513/5/3 512/5/3 511/5/3
f 514/5/3 512/5/3 513/5/3
f 517/5/3 516/5/3 515/5/3
f 518/5/3 516/5/3 517/5/3
f 521/5/3 520/5/3 519/5/3
f 522/5/3 520/5/3 521/5/3
f 525/5/3 524/5/3 523/5/3
f 526/5/3 524/5/3 525/5/3
f 529/5/3 528/5/3 527/5/3
f 530/5/3 528/5/3 529/5/3
f 534/5/3 532/5/3 531/5/3
f 535/5/3 532/5/3 534/5/3
f 537/5/3 534/5/3 533/5/3
f 538/5/3 534/5/3 537/5/3
f 539/5/3 536/5/3 535/5/3
f 540/5/3 536/5/3 539/5/3
f 542/5/3 539/5/3 538/5/3
f 543/5/3 539/5/3 542/5/3
f 544/5/3 542/5/3 541/5/3
f 545/5/3 542/5/3 544/5/3
f 546/5/4 547/5/4 550/5/4
f 550/5/4 547/5/4 551/5/4
f 548/5/4 549/5/4 552/5/4
f 552/5/4 549/5/4 553/5/4
f 554/5/4 555/5/4 558/5/4
f 558/5/4 555/5/4 559/5/4
f 556/5/4 557/5/4 560/5/4
f 560/5/4 557/5/4 561/5/4
f 562/5/4 563/5/4 564/5/4
f 564/5/4 563/5/4 565/5/4
f 566/5/4 567/5/4 570/5/4
f 570/5/4 567/5/4 571/5/4
f 568/5/4 569/5/4 572/5/4
f 572/5/4 569/5/4 573/5/4
f 574/1/4 575/1/4 576/1/4
f 576/1/4 575/1/4 577/1/4
f 577/11/4 578/11/4 579/11/4
f 579/11/4 578/11/4 580/11/4
f 580/1/4 581/1/4 587/1/4
f 587/1/4 581/1/4 588/1/4
f 582/5/4 583/5/4 589/5/4
f 589/5/4 583/5/4 590/5/4
f 584/7/4 585/7/4 591/7/4
f 585/1/4 586/1/4 592/1/4
f 591/7/4 585/7/4 592/7/4
f 592/1/4 586/1/4 593/1/4
f 594/7/4 595/7/4 597/7/4
f 595/1/4 596/1/4 598/1/4
f 597/7/4 595/7/4 598/7/4
f 598/1/4 596/1/4 599/1/4
f 600/5/4 601/5/4 606/5/4
f 606/5/4 601/5/4 607/5/4
f 602/1/4 603/1/4 608/1/4
f 608/1/4 603/1/4 609/1/4
f 604/1/4 605/1/4 610/1/4
f 610/1/4 605/1/4 611/1/4
f 609/1/4 610/1/4 612/1/4
f 612/1/4 610/1/4 613/1/4
f 614/5/4 615/5/4 616/5/4
f 616/5/4 615/5/4 617/5/4
f 618/5/4 619/5/4 623/5/4
f 623/5/4 619/5/4 624/5/4
f 620/5/4 621/5/4 625/5/4
f 625/5/4 621/5/4 626/5/4
f 622/9/4 623/9/4 629/9/4
f 629/9/4 623/9/4 630/9/4
f 629/12/4 630/12/4 633/12/4
f 633/12/4 630/12/4 634/12/4
f 633/9/4 634/9/4 635/9/4
f 635/9/4 634/9/4 636/9/4
f 636/9/4 634/9/4 637/9/4
f 631/5/4 632/5/4 638/5/4
f 638/5/4 632/5/4 639/5/4
f 635/12/4 636/12/4 640/12/4
f 640/12/4 636/12/4 641/12/4
f 627/5/4 628/5/4 644/5/4
f 644/5/4 628/5/4 645/5/4
f 642/5/4 643/5/4 647/5/4
f 647/5/4 643/5/4 648/5/4
f 646/5/4 647/5/4 649/5/4
f 649/5/4 647/5/4 650/5/4
f 651/5/4 652/5/4 653/5/4
f 653/5/4 652/5/4 654/5/4
f 655/12/4 656/12/4 661/12/4
f 661/12/4 656/12/4 662/12/4
f 657/5/4 658/5/4 664/5/4
f 664/5/4 658/5/4 665/5/4
f 659/5/4 660/5/4 666/5/4
f 666/5/4 660/5/4 667/5/4
f 661/9/4 662/9/4 668/9/4
f 668/9/4 662/9/4 669/9/4
f 663/5/4 664/5/4 670/5/4
f 670/5/4 664/5/4 671/5/4
f 665/5/4 666/5/4 672/5/4
f 672/5/4 666/5/4 673/5/4
f 668/12/4 669/12/4 675/12/4
f 675/12/4 669/12/4 676/12/4
f 675/9/4 676/9/4 677/9/4
f 677/9/4 676/9/4 678/9/4
f 671/5/4 672/5/4 680/5/4
f 680/5/4 672/5/4 681/5/4
f 673/5/4 674/5/4 682/5/4
f 682/5/4 674/5/4 683/5/4
f 677/12/4 678/12/4 684/12/4
f 684/12/4 678/12/4 685/12/4
f 679/4/4 680/4/4 686/4/4
f 686/4/4 680/4/4 687/4/4
f 681/5/4 682/5/4 688/5/4
f 688/5/4 682/5/4 689/5/4
f 667/5/4 660/5/4 690/5/4
f 684/9/4 685/9/4 691/9/4
f 691/9/4 685/9/4 692/9/4
f 687/5/4 688/5/4 693/5/4
f 693/5/4 688/5/4 694/5/4
f 689/5/4 690/5/4 695/5/4
f 690/5/4 660/5/4 696/5/4
f 695/5/4 690/5/4 696/5/4
f 697/5/4 698/5/4 699/5/4
f 699/5/4 698/5/4 700/5/4
f 701/5/4 702/5/4 703/5/4
f 703/5/4 702/5/4 704/5/4
f 705/5/4 706/5/4 710/5/4
f 710/5/4 706/5/4 711/5/4
f 707/5/4 708/5/4 712/5/4
f 712/5/4 708/5/4 713/5/4
f 709/5/4 710/5/4 715/5/4
f 715/5/4 710/5/4 716/5/4
f 713/5/4 708/5/4 719/5/4
f 714/5/4 715/5/4 721/5/4
f 721/5/4 715/5/4 722/5/4
f 716/5/4 717/5/4 723/5/4
f 723/5/4 717/5/4 724/5/4
f 718/5/4 719/5/4 725/5/4
f 719/5/4 708/5/4 726/5/4
f 725/5/4 719/5/4 726/5/4
f 720/5/4 721/5/4 728/5/4
f 728/5/4 721/5/4 729/5/4
f 722/5/4 723/5/4 730/5/4
f 730/5/4 723/5/4 731/5/4
f 727/5/4 728/5/4 732/5/4
f 732/5/4 728/5/4 733/5/4
f 729/5/4 730/5/4 734/5/4
f 734/5/4 730/5/4 735/5/4
f 733/5/4 734/5/4 737/5/4
f 737/5/4 734/5/4 738/5/4
f 736/5/4 737/5/4 739/5/4
f 739/5/4 737/5/4 740/5/4
f 745/7/5 742/7/5 741/7/5
f 746/7/5 742/7/5 745/7/5
f 747/7/5 744/7/5 743/7/5
f 748/7/5 744/7/5 747/7/5
f 756/12/5 750/12/5 749/12/5
f 757/9/5 751/9/5 750/9/5
f 757/12/5 750/12/5 756/12/5
f 758/9/5 755/9/5 754/9/5
f 758/12/5 754/12/5 753/12/5
f 759/9/5 755/9/5 758/9/5
f 762/9/5 757/9/5 756/9/5
f 763/9/5 751/9/5 757/9/5
f 763/9/5 757/9/5 762/9/5
f 764/12/5 752/12/5 751/12/5
f 764/9/5 751/9/5 763/9/5
f 765/9/5 753/9/5 752/9/5
f 765/12/5 758/12/5 753/12/5
f 765/12/5 759/12/5 758/12/5
f 766/12/5 759/12/5 765/12/5
f 767/12/5 759/12/5 766/12/5
f 769/1/5 761/1/5 760/1/5
f 770/1/5 761/1/5 769/1/5
f 771/12/5 763/12/5 762/12/5
f 772/12/5 763/12/5 771/12/5
f 773/12/5 752/12/5 764/12/5
f 774/9/5 765/9/5 752/9/5
f 775/9/5 767/9/5 766/9/5
f 776/1/5 768/1/5 767/1/5
f 776/9/5 767/9/5 775/9/5
f 777/1/5 768/1/5 776/1/5
f 778/9/5 772/9/5 771/9/5
f 778/9/5 773/9/5 772/9/5
f 779/9/5 773/9/5 778/9/5
f 780/12/5 776/12/5 775/12/5
f 780/12/5 775/12/5 774/12/5
f 781/12/5 776/12/5 780/12/5
f 782/12/5 779/12/5 778/12/5
f 783/9/5 773/9/5 779/9/5
f 783/12/5 779/12/5 782/12/5
f 784/12/5 752/12/5 773/12/5
f 784/9/5 773/9/5 783/9/5
f 785/9/5 774/9/5 752/9/5
f 785/12/5 752/12/5 784/12/5
f 786/12/5 780/12/5 774/12/5
f 786/9/5 774/9/5 785/9/5
f 787/9/5 781/9/5 780/9/5
f 787/12/5 780/12/5 786/12/5
f 788/9/5 781/9/5 787/9/5
f 792/5/5 789/5/5 788/5/5
f 793/5/5 789/5/5 792/5/5
f 794/5/5 791/5/5 790/5/5
f 795/5/5 791/5/5 794/5/5
f 800/11/5 797/11/5 796/11/5
f 801/11/5 797/11/5 800/11/5
f 802/1/5 799/1/5 798/1/5
f 803/1/5 799/1/5 802/1/5
f 810/5/5 805/5/5 804/5/5
f 811/5/5 805/5/5 810/5/5
f 812/5/5 807/5/5 806/5/5
f 813/5/5 807/5/5 812/5/5
f 814/5/5 809/5/5 808/5/5
f 815/5/5 809/5/5 814/5/5
f 820/5/5 817/5/5 816/5/5
f 821/5/5 817/5/5 820/5/5
f 822/5/5 819/5/5 818/5/5
f 823/5/5 819/5/5 822/5/5
f 825/1/5 821/1/5 820/1/5
f 826/1/5 821/1/5 825/1/5
f 827/1/5 824/1/5 823/1/5
f 828/1/5 824/1/5 827/1/5
f 833/5/5 830/5/5 829/5/5
f 834/5/5 830/5/5 833/5/5
f 835/8/5 832/8/5 831/8/5
f 836/8/5 832/8/5 835/8/5
f 839/5/5 836/5/5 835/5/5
f 840/5/5 836/5/5 839/5/5
f 841/5/5 838/5/5 837/5/5
f 842/5/5 838/5/5 841/5/5
f 847/5/5 844/5/5 843/5/5
f 848/5/5 844/5/5 847/5/5
f 849/5/5 846/5/5 845/5/5
f 850/5/5 846/5/5 849/5/5
f 857/12/5 852/12/5 851/12/5
f 858/12/5 852/12/5 857/12/5
f 859/5/5 854/5/5 853/5/5
f 860/5/5 854/5/5 859/5/5
f 861/5/5 856/5/5 855/5/5
f 862/5/5 856/5/5 861/5/5
f 866/5/5 858/5/5 857/5/5
f 869/5/5 865/5/5 864/5/5
f 869/5/5 863/5/5 862/5/5
f 869/5/5 864/5/5 863/5/5
f 870/5/5 865/5/5 869/5/5
f 871/5/5 865/5/5 870/5/5
f 872/5/5 858/5/5 866/5/5
f 873/5/5 858/5/5 872/5/5
f 874/5/5 868/5/5 867/5/5
f 875/5/5 868/5/5 874/5/5
f 876/5/5 871/5/5 870/5/5
f 877/5/5 871/5/5 876/5/5
f 878/5/5 873/5/5 872/5/5
f 879/5/5 873/5/5 878/5/5
f 884/5/5 881/5/5 880/5/5
f 885/5/5 881/5/5 884/5/5
f 886/5/5 883/5/5 882/5/5
f 887/5/5 883/5/5 886/5/5
f 892/5/5 889/5/5 888/5/5
f 893/5/5 889/5/5 892/5/5
f 894/5/5 891/5/5 890/5/5
f 895/5/5 891/5/5 894/5/5
f 899/5/5 896/5/5 895/5/5
f 900/5/5 896/5/5 899/5/5
f 901/5/5 898/5/5 897/5/5
f 902/5/5 898/5/5 901/5/5
f 907/2/5 904/2/5 903/2/5
f 908/2/5 904/2/5 907/2/5
f 909/5/5 906/5/5 905/5/5
f 910/5/5 906/5/5 909/5/5
f 913/5/5 912/5/5 911/5/5
f 914/5/5 912/5/5 913/5/5
f 921/5/5 916/5/5 915/5/5
f 922/5/5 916/5/5 921/5/5
f 923/5/5 918/5/5 917/5/5
f 924/5/5 918/5/5 923/5/5
f 925/5/5 920/5/5 919/5/5
f 926/5/5 920/5/5 925/5/5
f 927/5/5 923/5/5 922/5/5
f 928/5/5 923/5/5 927/5/5
f 929/5/5 925/5/5 924/5/5
f 930/5/5 925/5/5 929/5/5
f 933/5/5 932/5/5 931/5/5
f 934/5/5 932/5/5 933/5/5
f 939/5/5 936/5/5 935/5/5
f 940/5/5 936/5/5 939/5/5
f 941/5/5 938/5/5 937/5/5
f 942/5/5 938/5/5 941/5/5
f 947/5/5 944/5/5 943/5/5
f 948/5/5 944/5/5 947/5/5
f 949/5/5 946/5/5 945/5/5
f 950/5/5 946/5/5 949/5/5
f 951/12/6 952/12/6 958/12/6
f 952/9/6 953/9/6 959/9/6
f 958/12/6 952/12/6 959/12/6
f 953/12/6 954/12/6 960/12/6
f 959/9/6 953/9/6 960/9/6
f 954/9/6 955/9/6 961/9/6
f 960/12/6 954/12/6 961/12/6
f 955/12/6 956/12/6 962/12/6
f 961/9/6 955/9/6 962/9/6
f 956/9/6 957/9/6 963/9/6
f 962/12/6 956/12/6 963/12/6
f 963/9/6 957/9/6 964/9/6
f 958/9/6 959/9/6 967/9/6
f 967/9/6 959/9/6 968/9/6
f 963/12/6 964/12/6 969/12/6
f 969/12/6 964/12/6 970/12/6
f 965/1/6 966/1/6 972/1/6
f 972/1/6 966/1/6 973/1/6
f 967/12/6 968/12/6 974/12/6
f 974/12/6 968/12/6 975/12/6
f 969/9/6 970/9/6 976/9/6
f 970/1/6 971/1/6 977/1/6
f 976/9/6 970/9/6 977/9/6
f 977/1/6 971/1/6 978/1/6
f 974/9/6 975/9/6 979/9/6
f 979/9/6 975/9/6 980/9/6
f 976/12/6 977/12/6 984/12/6
f 984/12/6 977/12/6 985/12/6
f 979/12/6 980/12/6 986/12/6
f 980/9/6 981/9/6 987/9/6
f 986/12/6 980/12/6 987/12/6
f 981/12/6 982/12/6 988/12/6
f 987/9/6 981/9/6 988/9/6
f 982/9/6 983/9/6 989/9/6
f 988/12/6 982/12/6 989/12/6
f 983/12/6 984/12/6 990/12/6
f 989/9/6 983/9/6 990/9/6
f 984/9/6 985/9/6 991/9/6
f 990/12/6 984/12/6 991/12/6
f 991/9/6 985/9/6 992/9/6
f 992/5/6 993/5/6 996/5/6
f 996/5/6 993/5/6 997/5/6
f 994/5/6 995/5/6 998/5/6
f 998/5/6 995/5/6 999/5/6
f 1000/11/6 1001/11/6 1004/11/6
f 1004/11/6 1001/11/6 1005/11/6
f 1002/1/6 1003/1/6 1006/1/6
f 1006/1/6 1003/1/6 1007/1/6
f 1008/5/6 1009/5/6 1014/5/6
f 1014/5/6 1009/5/6 1015/5/6
f 1010/5/6 1011/5/6 1016/5/6
f 1016/5/6 1011/5/6 1017/5/6
f 1012/5/6 1013/5/6 1018/5/6
f 1018/5/6 1013/5/6 1019/5/6
f 1020/1/6 1021/1/6 1022/1/6
f 1022/1/6 1021/1/6 1023/1/6
f 1024/5/6 1025/5/6 1026/5/6
f 1026/5/6 1025/5/6 1027/5/6
f 1028/5/6 1029/5/6 1032/5/6
f 1032/5/6 1029/5/6 1033/5/6
f 1030/5/6 1031/5/6 1034/5/6
f 1034/5/6 1031/5/6 1035/5/6
f 1036/5/6 1037/5/6 1041/5/6
f 1041/5/6 1037/5/6 1042/5/6
f 1038/5/6 1039/5/6 1043/5/6
f 1043/5/6 1039/5/6 1044/5/6
f 1040/5/6 1041/5/6 1046/5/6
f 1046/5/6 1041/5/6 1047/5/6
f 1044/5/6 1045/5/6 1048/5/6
f 1048/5/6 1045/5/6 1049/5/6
f 1050/5/6 1051/5/6 1052/5/6
f 1052/5/6 1051/5/6 1053/5/6
f 1054/5/6 1055/5/6 1060/5/6
f 1060/5/6 1055/5/6 1061/5/6
f 1056/5/6 1057/5/6 1062/5/6
f 1062/5/6 1057/5/6 1063/5/6
f 1058/5/6 1059/5/6 1064/5/6
f 1064/5/6 1059/5/6 1065/5/6
f 1066/5/6 1067/5/6 1073/5/6
f 1073/5/6 1067/5/6 1074/5/6
f 1068/5/6 1069/5/6 1075/5/6
f 1075/5/6 1069/5/6 1076/5/6
f 1070/5/6 1071/5/6 1077/5/6
f 1077/5/6 1071/5/6 1078/5/6
f 1072/5/6 1073/5/6 1079/5/6
f 1079/5/6 1073/5/6 1080/5/6
f 1076/5/6 1077/5/6 1081/5/6
f 1081/5/6 1077/5/6 1082/5/6
f 1078/5/6 1079/5/6 1083/5/6
f 1083/5/6 1079/5/6 1084/5/6
f 1085/5/6 1086/5/6 1089/5/6
f 1089/5/6 1086/5/6 1090/5/6
f 1087/5/6 1088/5/6 1091/5/6
f 1091/5/6 1088/5/6 1092/5/6
f 1093/5/6 1094/5/6 1097/5/6
f 1097/5/6 1094/5/6 1098/5/6
f 1095/5/6 1096/5/6 1099/5/6
f 1099/5/6 1096/5/6 1100/5/6
f 1101/5/6 1102/5/6 1105/5/6
f 1105/5/6 1102/5/6 1106/5/6
f 1103/5/6 1104/5/6 1107/5/6
f 1107/5/6 1104/5/6 1108/5/6
f 1109/5/6 1110/5/6 1111/5/6
f 1111/5/6 1110/5/6 1112/5/6
f 1113/5/6 1114/5/6 1115/5/6
f 1115/5/6 1114/5/6 1116/5/6
f 1116/5/6 1114/5/6 1117/5/6
f 1117/5/6 1114/5/6 1118/5/6
f 1119/5/6 1120/5/6 1123/5/6
f 1123/5/6 1120/5/6 1124/5/6
f 1121/5/6 1122/5/6 1125/5/6
f 1125/5/6 1122/5/6 1126/5/6
f 1127/5/6 1128/5/6 1131/5/6
f 1129/5/6 1130/5/6 1131/5/6
f 1128/5/6 1129/5/6 1131/5/6
f 1131/5/6 1130/5/6 1132/5/6
f 1133/5/6 1134/5/6 1135/5/6
f 1135/5/6 1134/5/6 1136/5/6
